<?xml version="1.0" encoding="UTF-8"?>
<svg width="444px" height="444px" viewBox="0 0 444 444" version="1.1" xmlns="http://www.w3.org/2000/svg" xmlns:xlink="http://www.w3.org/1999/xlink">
    <!-- Generator: Sketch 55.2 (78181) - https://sketchapp.com -->
    <title>Flexy-F</title>
    <desc>Created with Sketch.</desc>
    <g id="Flexy-F" stroke="none" stroke-width="1" fill="none" fill-rule="evenodd">
        <g id="Group-5" transform="translate(1.000000, 1.000000)" fill="#FAEA37">
            <path d="M198.827528,320.411673 C198.827528,325.981471 194.495132,330.623466 188.927325,330.623466 C183.046933,330.623466 178.405933,325.981471 178.405933,320.411673 L178.405933,122.088065 C178.405933,115.591462 183.667127,109.402466 191.091532,109.402466 L276.795731,109.402466 C282.364532,109.402466 286.696929,114.044462 286.696929,119.922863 C286.696929,125.183061 282.364532,129.203867 276.795731,129.203867 L198.827528,129.203867 L198.827528,208.100867 L270.606735,208.100867 C275.867929,208.100867 280.507933,212.432268 280.507933,218.002065 C280.507933,223.570867 276.176532,227.902268 270.606735,227.902268 L198.827528,227.902268 L198.827528,320.411673 Z" id="Fill-1"></path>
            <path d="M428.836563,220.657948 C428.836563,335.445547 335.448135,428.835966 220.658545,428.835966 C105.868955,428.835966 12.480527,335.445547 12.480527,220.657948 C12.480527,105.870349 105.868955,12.4809252 220.658545,12.4809252 C335.448135,12.4809252 428.836563,105.870349 428.836563,220.657948 M441.316095,220.657948 C441.316095,98.9845063 342.329,0.000398198198 220.658545,0.000398198198 C98.9890856,0.000398198198 0,98.9845063 0,220.657948 C0,342.331389 98.9890856,441.316493 220.658545,441.316493 C342.329,441.316493 441.316095,342.331389 441.316095,220.657948" id="Fill-3"></path>
        </g>
    </g>
</svg>