<?xml version="1.0" encoding="utf-8"?>
<!-- Generator: Adobe Illustrator 26.0.0, SVG Export Plug-In . SVG Version: 6.00 Build 0)  -->
<svg version="1.1" id="Capa_1" xmlns="http://www.w3.org/2000/svg" xmlns:xlink="http://www.w3.org/1999/xlink" x="0px" y="0px"
	 viewBox="0 0 215.6 179.4" style="enable-background:new 0 0 215.6 179.4;" xml:space="preserve">
<style type="text/css">
	.st0{fill:#FFFFFF;}
</style>
<path class="st0" d="M92.2,119.2c0-4-9.5-3-9.8-11.2c-0.2-4.6,3.7-8.1,9.2-8.2c4.9-0.1,8.1,1.7,8.1,1.7L98,106
	c-1-0.5-2.6-1.2-4.5-1.3c-2.4,0-3.3,1.3-3.2,2.8c0.3,3.3,10.1,3.2,10.1,11.5c0,4.6-4,8.4-10.6,8.4c-3.4,0-6.4-0.8-8.1-1.9l2-4.7
	c0,0,2.2,1.3,5,1.3C90.8,122.1,92.2,120.9,92.2,119.2z M66.1,119c0-8.3-9.8-8.2-10.1-11.5c-0.1-1.5,0.8-2.8,3.2-2.8
	c1.9,0.1,3.5,0.8,4.5,1.3l1.7-4.5c0,0-3.2-1.8-8.1-1.7c-5.6,0.1-9.5,3.6-9.3,8.2c0.3,8.2,9.8,7.2,9.8,11.2c0,1.7-1.4,2.9-3.5,2.9
	c-2.9,0-5.1-1.3-5.1-1.3l-1.9,4.7c1.7,1.1,4.7,1.9,8.1,1.9C62,127.4,66,123.6,66.1,119z M74.1,88.9c-2.3,0-4.2,1.6-4.2,3.6
	s1.8,3.6,4.2,3.6c2.4,0,4.3-1.5,4.3-3.6C78.4,90.6,76.5,88.9,74.1,88.9z M34.2,122.1c-2.9,0-5.1-1.3-5.1-1.3l-1.9,4.7
	c1.7,1.1,4.7,1.9,8.1,1.9c6.6,0,10.5-3.8,10.8-8.4c0-8.3-9.9-8.2-10.2-11.5c-0.2-1.5,0.8-2.8,3.2-2.8c1.9,0.1,3.5,0.8,4.5,1.3
	l1.7-4.5c0,0-3.2-1.8-8.1-1.7c-5.6,0.1-9.5,3.6-9.3,8.2c0.3,8.2,9.8,7.2,9.8,11.2C37.7,120.9,36.3,122.1,34.2,122.1z M133.8,109.3
	v-1.1c0-2.8-1.5-3.6-4.2-3.6c-3.2,0-7,1.7-7,1.7l-1.2-4.7c0,0,3.9-2,9.6-2c5.8,0,10.6,2.5,10.6,9.8v15.4c-2.3,1.5-6.2,2.6-10.6,2.6
	c-7.5,0-11.7-2.9-11.7-8.4C119.3,112.1,126.1,110.1,133.8,109.3z M133.7,112.9c-4.5,0.4-6.8,2-6.8,5.8c0,3.1,1.9,4.5,4.4,4.5
	c1.1,0,1.7-0.2,2.4-0.6V112.9z M16.1,109.3v-1.1c0-2.8-1.5-3.6-4.2-3.6c-3.2,0-7,1.7-7,1.7l-1.2-4.7c0,0,3.9-2,9.6-2
	c5.8,0,10.6,2.5,10.6,9.8v15.4c-2.1,1.5-6.1,2.6-10.5,2.6c-7.5,0-11.8-2.9-11.8-8.4C1.6,112.1,8.4,110.1,16.1,109.3z M16.1,112.9
	c-4.5,0.4-6.8,2-6.8,5.8c0,3.1,1.8,4.5,4.4,4.5c1.1,0,1.7-0.2,2.4-0.6V112.9z M111.8,92.5l-7.8,2v25.1c0,4.1,2.5,7.7,8.1,7.7
	c1.8,0,3.7-0.4,4.4-0.7v-4.8c-0.7,0.2-1.5,0.3-2.2,0.3c-1.8,0-2.5-1.1-2.5-3.1v-13.8h4.7v-5h-4.7V92.5z M168.2,127v-18.8
	c0-4.9-3.1-8.5-11.6-8.5c-3.7,0-7.4,0.9-10.6,2.3v25h7.8v-21.9c0.8-0.3,1.9-0.5,2.6-0.5c3.2,0,4,1.8,4,3.7V127H168.2z M192.3,113.5
	c0-8.4,4.7-13.8,12.2-13.8s11.4,5.3,11.1,14.3l-15.1,2.3c0.6,3.9,1.9,5.8,5.7,5.8c2.8,0,5.2-0.6,8.2-2v5.6c-2.9,1.2-5.5,1.8-9.1,1.8
	C197.3,127.5,192.3,122,192.3,113.5z M200,112.5l8.6-1.4c0-4.7-1.6-6.8-4.4-6.8C201.1,104.3,199.8,107,200,112.5z M186.2,104.8
	c1.8,0,2.8,0.5,3.6,1l1.8-4.3c-1.3-1-3.8-1.9-7.3-1.9c-6.7,0-12.3,4.8-12.3,13.8s5.2,14,12.3,14c3.1,0,6.1-0.8,7.2-2l-1.8-4.7
	c-0.9,0.7-2,1.1-3.6,1.1c-3.4,0-6.3-3.1-6.3-8.5C179.8,107.9,182.4,104.8,186.2,104.8z M70.3,127h7.8v-26.8h-7.8V127z M155,61.2
	c0-2,1.1-3.4,3.8-3.6c0.6,0,1.2,0,1.8,0l1-5.2c-1.1-0.2-2-0.2-3-0.2c-7.9,0-11.7,2.8-11.7,9.4v18.6h8.1V61.2z M90.7,66.4
	c0-8.7,4.8-14.2,12.7-14.2c7.9,0,11.9,5.4,11.5,14.7l-15.8,2.3c0.5,4.1,2,6.1,6,6.1c2.9,0,5.4-0.7,8.5-2.1v5.7
	c-3,1.2-5.7,1.8-9.4,1.8C95.9,80.7,90.7,75.8,90.7,66.4z M98.6,65.3l9-1.4c0-4.8-1.6-7-4.5-7C99.8,56.9,98.3,59.6,98.6,65.3z
	 M198.6,89.1h-8.1v-35c2.4-1.2,5.7-2,10.7-2c8.4,0,13.8,4.8,13.8,14.1c0,8.9-5.1,14.3-12.3,14.3c-1.7,0-3.2-0.2-4.1-0.5V89.1z
	 M198.6,75.4c0.5,0.2,1.2,0.4,2.1,0.4c4.3,0,6.2-3.3,6.2-9.5c0.1-6.1-1.5-9.5-5.8-9.5c-1.1,0-1.8,0.2-2.5,0.4V75.4z M130.4,80.7
	c4,0,8.9-1.2,11.7-2.7V52.6H134v22c-0.9,0.5-2,0.7-3.4,0.7c-2.8,0-3.9-1.6-3.9-3.6v-19h-8.1v18.5C118.6,77.8,122.5,80.7,130.4,80.7z
	 M161.7,66.4c0-8.2,4.2-14.2,12.3-14.2c8.2,0,12.4,6,12.4,14.2s-4.2,14.3-12.4,14.3C165.9,80.7,161.7,74.6,161.7,66.4z M169.7,66.3
	c0,5,0.8,9,4.3,9c3.6,0,4.3-4,4.3-9c0.1-4.9-0.7-9.2-4.3-9.2C170.4,57.1,169.7,61.4,169.7,66.3z M34.5,86.1
	c8.5,0.9,16.3-0.5,19.7-2.7c0.1,0,1.8-1.2,1.8-2.8c0,0-19.8,2.8-28.1-5.8c-7.3-7.7-2-17.1-2-17.1c3.1-6.4,10.9-13.8,10.9-13.8
	S46.9,34.2,50,28.6c1.6-2.8,2.4-5.7,2.4-8.2c0.1-5.2-3.8-7.3-4.9-7.9c-10.4-5-31.8-1-40.3,2.2c-3.1,4.2-9.5,22.2-6.3,39.4
	C3.6,71.4,15.4,84.6,34.5,86.1z M51.2,11.6c7.3,7.7,2,17.1,2,17.1c-3.2,6.3-11,13.8-11,13.8S32.1,52.2,29,57.8
	c-1.6,2.8-2.4,5.7-2.4,8.2c-0.1,5.2,3.8,7.3,4.9,7.9c10.5,5,31.9,1,40.4-2.2c3.1-4.2,9.5-22.2,6.3-39.4C75.5,15,63.6,1.9,44.6,0.3
	C36.1-0.6,28.3,0.8,24.9,3c-0.1,0-1.8,1.2-1.8,2.8C23.1,5.8,42.9,3,51.2,11.6z M134.8,149.2c-0.7,0-1.2,0.5-1.4,1
	c-0.2,0.4-0.1,0.9,0.3,1.2c0.4,0.2,0.9,0.1,1.1-0.3c0.8,1.2,1.1,4.5,1.1,5.8c0,2.7-0.6,5.2-1.5,6.9c-0.9,1.8-2,2.6-2.7,2.6
	c-0.1,0-1.8-0.1-2.9-2.3c-0.5-1.1-0.7-2.6-0.7-4.3c0-2,0.3-4.4,0.7-6.7c0.2-1.2-1.3-1-1.3-1c-0.4,0-0.8,0.5-1.1,1.5
	c-0.3,1.1-0.5,1.9-0.7,2.5c-0.6,1.8-1.4,3.6-2.3,5.5c-1.4,2.9-2.5,4.3-3.3,4.3c-0.3,0-0.5-0.9-0.3-2.6c0.1-1.5,0.7-4.6,1.4-8.7
	c0.2-1.2-0.3-1.6-0.9-1.6c-0.7,0-1.3,1.1-1.6,3.4c-0.3,2.6-0.4,4.8-0.5,6.3c-0.1,0.8,0,1.8,0.3,2.8c0.4,1.5,1,2.3,1.8,2.3
	c1.2,0,2.6-1.8,4.3-5.3c0.8-1.8,1.4-3.3,1.9-4.5c-0.2,3.3,0.1,5.4,0.8,6.8c1.3,2.8,3.7,3.3,4.4,3.3c1.9,0,3.3-1.5,4.3-3.5
	s1.6-4.7,1.6-7.7c0.1-1.5-0.2-5-1.1-6.5C136.2,149.8,135.8,149.2,134.8,149.2z M172.9,150.8c-0.8-0.3-1.4-0.5-1.8-0.5
	c-2.4,0-4.7,1.7-6.8,5.1c-1.9,3-2.8,5.5-2.8,7.5c0,1.3,0.3,2.3,0.9,3.2c0.7,1.1,1.8,1.6,3.3,1.6c0.6,0,1.8,0,3.7-1.2
	c0.3-0.2,2.3-1.3,4.8-5c0-0.1-0.1-0.8-0.7-0.9c-0.1-0.1-0.2,0.1-0.3,0.2c-0.9,1.4-2.1,2.6-3.4,3.5c-1.5,0.9-2.9,1.4-4.4,1.4
	s-2.2-0.9-2.2-2.6c0-1.5,0.8-3.7,2.4-6.5c1.8-3.1,3.6-4.7,5.3-4.7c0.4,0,0.9,0.3,1.4,0.8c0.5,0.4,0.9,0.7,1.2,0.7c0.8-0.1,1-0.6,1-1
	C174.5,151.8,173.9,151.2,172.9,150.8z M153.4,159.6c-0.8,2.4-2.2,4.3-4.1,5.8c-1.8,1.5-3.6,2.2-5.5,2.2c-1.3,0-2.4-0.5-3.1-1.4
	c-0.7-0.9-1-2.1-0.9-3.5c0.1-2.1,1.2-4.7,3.4-7.7c2.3-3.3,4.4-4.9,6.3-5c1.5,0,1.8,1.8,1.8,2.2c0,1.4-0.6,2.9-1.8,4.7
	c-1.4,2.1-3,3.1-4.7,3.2c-1.4,0.1-2-0.5-2-0.5c-0.3,0.2-0.5,0.9-0.8,2c-0.3,1.1-0.4,2.1-0.4,2.9c0,1.1,0.7,1.6,2.2,1.6
	c1.4,0,3-0.8,4.9-2.4c1.8-1.6,3.1-3.2,3.8-4.8C152.5,158.9,153.8,158.5,153.4,159.6z M143.3,158.4c0,0.2,0.3,0.2,1,0.3
	c1.1,0.1,2.3-0.7,3.6-2.3c1.3-1.6,1.9-3,1.9-4.2c0-0.6-0.2-0.8-0.6-0.7c-0.5,0.1-1,0.4-1.5,1C144.8,155.9,143.3,157.9,143.3,158.4z
	 M190.3,163.3c-0.6,0-0.9,0.3-1.1,0.9c-0.1,0.5-0.9,0.6-1.1,0.5c-0.6-0.2-0.9-1-0.9-2.4c0-0.8,0.3-3,1-6.5c0.2-0.8-0.2-1.2-1-1.2
	c-0.6,0-0.8,0.2-1,0.6c-0.2,0.6-0.5,2.1-0.7,3.7c-1.9,2.8-3.3,4.6-4.5,5.8c-1.1,1.2-2,1.5-2.2,1.5c-0.4-0.1-0.6-1.4-0.6-2.3
	c0-2.8,1.1-7.1,2-8.9c1.1-2.2,2.5-2.8,3.5-2.8c1.1,0,1.9,0.8,2,1.6c0.1,0.5,0.5,0.8,1,0.7c0.5-0.1,0.8-0.5,0.8-0.9
	c-0.2-1.8-1.8-3.1-3.7-3.1c-1.8,0-3.7,1.2-5,3.7c-1.1,2.3-2.2,6.6-2.2,9.7c0,1,0.1,1.8,0.4,2.6c0.3,0.7,1,1.4,1.9,1.4
	c1.1,0,2.1-0.7,3.4-2c0.9-0.9,1.9-2.1,3.1-3.7c0.2,2,0.8,3.3,2,3.7c0.3,0.1,2.4,0.8,3.3-1.4C190.7,164.2,191,163.4,190.3,163.3z
	 M215.6,159.6c-0.8,2.4-2.2,4.3-4.1,5.8c-1.8,1.5-3.6,2.2-5.5,2.2c-1.3,0-2.4-0.5-3.1-1.4c-0.7-0.9-1-2.1-0.9-3.5
	c0.1-2.1,1.2-4.7,3.4-7.7c2.3-3.3,4.4-5,6.3-5c0.6,0,1.1,0.3,1.5,0.9c0.2,0.4,0.4,0.9,0.4,1.4c0,1.4-0.6,2.9-1.8,4.7
	c-1.4,2.1-3,3.1-4.8,3.2c-1.4,0-2-0.6-2-0.6c-0.3,0.2-0.5,0.9-0.8,2c-0.3,1.1-0.4,2.1-0.4,2.9c0,1.1,0.7,1.6,2.2,1.6
	c1.4,0,3-0.8,4.9-2.4c1.8-1.6,3.1-3.2,3.8-4.8C214.7,158.9,216,158.5,215.6,159.6z M205.5,158.4c0,0.2,0.3,0.2,1,0.3
	c1.1,0.1,2.3-0.7,3.6-2.3c1.3-1.6,1.9-3,1.9-4.2c0-0.6-0.2-0.8-0.6-0.7c-0.5,0.1-1,0.4-1.5,1C207,155.9,205.5,157.9,205.5,158.4z
	 M202.2,151.6c0,0,0.1,0.5,0.2,0.7c0,0.2,0.2,0.3,0.4,0.3c0.6,0,0.8-0.4,0.7-1.1c-0.2-1.2-1-1.8-2.3-1.8c-2,0-3.9,2.2-5.6,6.6
	c0-1,0.1-2.2,0.3-3.5c0-0.3,0-0.6-0.2-0.9c-0.2-0.5-0.5-0.8-1-0.7c-0.8,0.1-1.2,1-1.2,1.3c0.3,2.4,0.4,4.6,0.4,6.5
	c0,1.9-0.1,4.2-0.4,7c-0.1,1.2,0.2,1.8,1,1.8c0.2,0,1.2-0.3,1.2-1.1c0-2.2-0.1-3.3-0.1-3.4c0-2,0.3-3.7,0.8-5.2
	c0.5-1.4,1.3-3,2.6-4.7c1-1.5,1.9-2.2,2.6-2.2C202,151.2,202.1,151.3,202.2,151.6z M105.3,159.4c-0.8,2.4-2.3,4.4-4.2,6
	c-1.9,1.5-3.8,2.3-5.7,2.3c-1.4,0-2.6-0.5-3.4-1.5c-1.1-1.5-1-3.6-1-3.8c0.1-2.2,1.3-4.8,3.4-8c2.3-3.3,4.5-5.1,6.6-5.1
	c0.8,0,1.4,0.4,1.8,1.1c0.3,0.5,0.4,1,0.4,1.6c0,1.5-0.6,3.1-1.8,4.9c-1.4,2.2-3.1,3.4-5.1,3.4c-0.8,0-1.4-0.1-1.9-0.4
	c-0.1,0.3-0.3,0.8-0.5,1.5c-0.3,1.1-0.4,2.1-0.4,2.8c0,0.8,0.4,1.2,1.8,1.2c1.2,0,2.8-0.7,4.6-2.3c1.8-1.5,3-3.1,3.7-4.7
	c0.1-0.1,0.2-0.2,0.4-0.2C104,158.2,105.9,157.9,105.3,159.4z M95.4,157.7c0,0.1,1.8,1.2,4.3-1.7c2.4-3,1.6-4.8,1.6-4.8
	c-0.4,0.1-0.8,0.3-1.7,1C97.6,154.1,95.9,156.4,95.4,157.7z M51.1,163c-0.1-0.1-0.3-0.1-0.5,0c-0.3,0.2-0.6,0.4-0.8,0.6
	c-0.4,0.3-0.6,0.4-0.8,0.4c-0.4,0.1-0.8-0.3-1.1-1.3c-0.3-1-0.5-2.6-0.5-4.8c0-1.1,0.2-2.3,0.4-3.5c0.3-1.3,0.4-1.9,0.4-2.1
	c0.1-0.4-0.2-1.4-1.5-1.4c-1.4,0.2-1.8,1.7-1.8,2.2c0,1.1-0.6,3-1.9,5.4c-1.1,2.2-2.3,3.9-3.4,5.3c-1,1.3-1.8,1.8-2,1.8
	c0,0-0.2-0.5-0.2-1.3c0-1.8,0.9-5.2,2.7-9.9c0,0,0.6-1.2,0.6-1.6c0.1-0.9-1.3-1.4-1.7-1.3c-0.7,0.1-1,0.7-1.4,1.7
	c-0.4,1-0.8,2.4-1.3,4.3c-0.8,3.4-1.2,5.3-1.2,6.2c0,3.8,1.6,4.3,2.2,4.1c0,0,2.5,0.4,5.1-3.6c0.4-0.6,1.2-2.1,2.3-4.4
	c0.2,1.9,0.6,3.3,1.2,4.4c0.7,1.3,1.7,2,3,2c0.5,0,1-0.2,1.6-0.5c0.7-0.4,1.2-1,1.2-1.7C51.7,163.5,51.4,163.3,51.1,163z
	 M17.1,151.2c-0.1-1.4-0.7-2.4-1.8-2.4c-1.3-0.1-1.6,1-1.6,1.5c0.1,1.4,0.1,2.7,0.1,3.9c0,3.9-0.4,6.6-1.2,8.1
	c-0.8,1.5-1.4,1.8-2.6,1.9c-1.4,0-2.4-0.6-3.2-1.8c-0.8-1.1-1.2-2.9-1.2-4.7c0-2.2,0.6-4.6,1.9-6.6c0.4-0.6,0.2-1.3-0.4-1.7
	c-0.6-0.4-1.3-0.2-1.7,0.4c-1.5,2.4-2.3,5.2-2.3,7.9c0,2.3,0.5,4.4,1.7,6.1c1.1,1.7,3,2.9,5.2,2.8c0,0,3.2,0.1,4.8-3.3
	c0.4-0.9,0.7-2,1-3.2c0.1,1.1,0.1,2,0.1,2.9c0,3.4-0.7,6.5-2.1,9.3c-1.6,3.2-3.6,4.7-6.2,4.7c-0.2,0-1.7,0-3.5-1.3
	c-1.6-1.1-2-3.3-2.1-3.6c-0.2-0.5-0.5-0.9-1-0.9c-1,0-1.1,0.9-1.1,1.3c0,1.4,0.8,2.8,2.2,4.3c1.7,1.8,3.6,2.7,5.8,2.7
	c3.7,0,6.5-2.3,8.4-6.7c1.4-3.2,2.1-6.4,2.1-9.6c0.2-3.6-0.3-5.4-0.3-5.9C17.8,155.5,17.1,151.2,17.1,151.2z M67.1,165.1
	c-1.3,0.6-1.8,0.3-2.1,0c-0.4-0.4-1.4-3-1.4-7.6c0-4,0.6-9.6,2.6-17c0.2-0.6-0.2-1.3-0.9-1.5c-0.6-0.2-1.3,0.2-1.5,0.9
	c-2,7.5-2.7,13.3-2.7,17.6c0,5,0.8,7.8,2.1,9.3c1.3,1.4,2.4,1.2,2.6,1.2c1,0,2.5-0.8,2.7-0.9c0.6-0.3,0.8-1.1,0.4-1.7
	C68.6,164.9,67.8,164.6,67.1,165.1z M91,151.1c-0.5-0.4-1.3,0-1.8,0.4c-1,0.8-1.9,2.1-2.8,3.9c-0.5,1-3.3,7.8-3.3,7.8
	c-0.1-0.2-1.5-4.1-2.6-6.7c-0.6-1.5-0.5-1.6-1-2.4c-1.1-1.9-1.9-1.3-2.4-1c-0.9,0.6-0.6,1.4-0.5,1.6c3.4,5.7,4.1,9.5,4.4,10.5
	c0.3,0.8,0.5,1.4,0.8,1.8c0.3,0.4,0.6,0.8,1.1,0.8c0.5-0.1,0.7-0.4,1-0.8c0.3-0.5,0.6-1.1,1-2c1-2.4,2.1-4.8,3.1-7.2
	c0.8-1.7,1.6-3,2.2-3.9c0.3-0.4,0.6-0.7,0.8-0.9C91.4,152.3,91.7,151.6,91,151.1z M34,155.9c0,1.7-0.8,4.2-2.3,6.9
	c-1.8,3.3-3.9,5.1-6.2,5.3c-0.1,0-4.3,0.5-4.5-4.8c0-2.2,0.5-4.6,1.6-7.1c1.1-2.5,2.2-4.2,3.7-4c0.3-0.5,0.8-0.9,1.6-1.3
	c0.9-0.4,1.5-0.6,2.1-0.6C34.1,150.2,34,155.9,34,155.9z M31.1,155.5c0-2.7-0.9-3-1.3-3c-0.7,0-1.5,0.4-2.5,1.2
	c0.1,0.5-0.2,0.8-0.6,1.4c-2.2,2.8-3.3,5.5-3.3,7.9c0,1,0.1,2.8,1.2,2.8c1.4,0,2.9-1.3,4.5-4.3C30.5,159,31.1,156.9,31.1,155.5z
	 M75,165.4c-0.5,0.5-0.7,0.6-0.7,0.6s-0.6,0.3-1.2-1.4c-0.2-0.8-1.3-3.7,0.3-9.4c0,0,0.6-1.6,0.6-2c0-1.3-1-1.5-1.4-1.5
	c-0.7,0-1.1,0.5-1.4,1.2c-1.1,2.5-1.3,6.4-1.3,7.7c0,1.4,0.3,2.8,0.8,4.3c0.7,2.1,1.9,3.4,3.4,3.4c0.4,0,2.3-0.4,2.2-1.7
	C76.1,165,75.2,165.2,75,165.4z M73.6,144.8c-0.7,1.1-0.2,1.8,0,2.1c0.3,0.4,0.7,0.6,1.1,0.6c0.5,0,0.9-0.1,1.2-0.5
	c0.2-0.2,0.8-1.4,0-2.3C75,143.9,73.9,144.4,73.6,144.8z"/>
</svg>
